<mxfile host="app.diagrams.net" agent="Mozilla/5.0 (Windows NT 10.0; Win64; x64) AppleWebKit/537.36 (KHTML, like Gecko) Chrome/131.0.0.0 Safari/537.36 OPR/116.0.0.0 (Edition Yx 03)" version="26.0.14">
  <diagram name="Страница — 1" id="HVX_jCZ0fqIVj1IUIJVQ">
    <mxGraphModel dx="2072" dy="626" grid="1" gridSize="10" guides="1" tooltips="1" connect="1" arrows="1" fold="1" page="1" pageScale="1" pageWidth="827" pageHeight="1169" math="0" shadow="0">
      <root>
        <mxCell id="0" />
        <mxCell id="1" parent="0" />
        <mxCell id="IpGAfAJii4wdeeZVUUcH-22" style="edgeStyle=orthogonalEdgeStyle;rounded=0;orthogonalLoop=1;jettySize=auto;html=1;" parent="1" source="IpGAfAJii4wdeeZVUUcH-1" target="IpGAfAJii4wdeeZVUUcH-8" edge="1">
          <mxGeometry relative="1" as="geometry" />
        </mxCell>
        <mxCell id="IpGAfAJii4wdeeZVUUcH-1" value="Формирование чека&lt;div&gt;&lt;br&gt;&lt;/div&gt;" style="rounded=0;whiteSpace=wrap;html=1;" parent="1" vertex="1">
          <mxGeometry x="340" y="210" width="260" height="210" as="geometry" />
        </mxCell>
        <mxCell id="IpGAfAJii4wdeeZVUUcH-7" style="edgeStyle=orthogonalEdgeStyle;rounded=0;orthogonalLoop=1;jettySize=auto;html=1;" parent="1" source="IpGAfAJii4wdeeZVUUcH-6" target="IpGAfAJii4wdeeZVUUcH-1" edge="1">
          <mxGeometry relative="1" as="geometry" />
        </mxCell>
        <mxCell id="IpGAfAJii4wdeeZVUUcH-6" value="Список предоставляемых услуг" style="text;html=1;align=center;verticalAlign=middle;whiteSpace=wrap;rounded=0;" parent="1" vertex="1">
          <mxGeometry x="-110" y="250" width="260" height="20" as="geometry" />
        </mxCell>
        <mxCell id="IpGAfAJii4wdeeZVUUcH-8" value="Чек" style="text;html=1;align=center;verticalAlign=middle;whiteSpace=wrap;rounded=0;" parent="1" vertex="1">
          <mxGeometry x="767" y="300" width="60" height="30" as="geometry" />
        </mxCell>
        <mxCell id="IpGAfAJii4wdeeZVUUcH-10" style="edgeStyle=orthogonalEdgeStyle;rounded=0;orthogonalLoop=1;jettySize=auto;html=1;" parent="1" source="IpGAfAJii4wdeeZVUUcH-9" target="IpGAfAJii4wdeeZVUUcH-1" edge="1">
          <mxGeometry relative="1" as="geometry" />
        </mxCell>
        <mxCell id="IpGAfAJii4wdeeZVUUcH-9" value="Список пожеланий клиента" style="text;html=1;align=center;verticalAlign=middle;whiteSpace=wrap;rounded=0;" parent="1" vertex="1">
          <mxGeometry x="-40" y="360" width="190" height="30" as="geometry" />
        </mxCell>
        <mxCell id="IpGAfAJii4wdeeZVUUcH-13" style="edgeStyle=orthogonalEdgeStyle;rounded=0;orthogonalLoop=1;jettySize=auto;html=1;" parent="1" source="IpGAfAJii4wdeeZVUUcH-12" target="IpGAfAJii4wdeeZVUUcH-1" edge="1">
          <mxGeometry relative="1" as="geometry" />
        </mxCell>
        <mxCell id="IpGAfAJii4wdeeZVUUcH-12" value="Трудовой кодекс" style="text;html=1;align=center;verticalAlign=middle;whiteSpace=wrap;rounded=0;" parent="1" vertex="1">
          <mxGeometry x="310" y="60" width="104" height="30" as="geometry" />
        </mxCell>
        <mxCell id="IpGAfAJii4wdeeZVUUcH-16" style="edgeStyle=orthogonalEdgeStyle;rounded=0;orthogonalLoop=1;jettySize=auto;html=1;" parent="1" source="IpGAfAJii4wdeeZVUUcH-14" target="IpGAfAJii4wdeeZVUUcH-1" edge="1">
          <mxGeometry relative="1" as="geometry" />
        </mxCell>
        <mxCell id="IpGAfAJii4wdeeZVUUcH-14" value="Внутренний устав заведения&amp;nbsp;" style="text;html=1;align=center;verticalAlign=middle;whiteSpace=wrap;rounded=0;" parent="1" vertex="1">
          <mxGeometry x="530" y="60" width="160" height="30" as="geometry" />
        </mxCell>
        <mxCell id="IpGAfAJii4wdeeZVUUcH-17" style="edgeStyle=orthogonalEdgeStyle;rounded=0;orthogonalLoop=1;jettySize=auto;html=1;" parent="1" source="IpGAfAJii4wdeeZVUUcH-15" target="IpGAfAJii4wdeeZVUUcH-1" edge="1">
          <mxGeometry relative="1" as="geometry" />
        </mxCell>
        <mxCell id="IpGAfAJii4wdeeZVUUcH-15" value="Администратор" style="text;html=1;align=center;verticalAlign=middle;whiteSpace=wrap;rounded=0;" parent="1" vertex="1">
          <mxGeometry x="410" y="540" width="120" height="30" as="geometry" />
        </mxCell>
        <mxCell id="IpGAfAJii4wdeeZVUUcH-21" style="edgeStyle=orthogonalEdgeStyle;rounded=0;orthogonalLoop=1;jettySize=auto;html=1;" parent="1" source="IpGAfAJii4wdeeZVUUcH-19" target="IpGAfAJii4wdeeZVUUcH-20" edge="1">
          <mxGeometry relative="1" as="geometry" />
        </mxCell>
        <mxCell id="IpGAfAJii4wdeeZVUUcH-25" style="edgeStyle=orthogonalEdgeStyle;rounded=0;orthogonalLoop=1;jettySize=auto;html=1;" parent="1" source="IpGAfAJii4wdeeZVUUcH-19" target="IpGAfAJii4wdeeZVUUcH-24" edge="1">
          <mxGeometry relative="1" as="geometry" />
        </mxCell>
        <mxCell id="IpGAfAJii4wdeeZVUUcH-19" value="Администратор&lt;div&gt;&lt;br&gt;&lt;/div&gt;" style="shape=umlActor;verticalLabelPosition=bottom;verticalAlign=top;html=1;outlineConnect=0;" parent="1" vertex="1">
          <mxGeometry x="120" y="650" width="30" height="60" as="geometry" />
        </mxCell>
        <mxCell id="IpGAfAJii4wdeeZVUUcH-20" value="Формирование чека&lt;div&gt;&lt;br&gt;&lt;/div&gt;" style="text;html=1;align=center;verticalAlign=middle;whiteSpace=wrap;rounded=0;" parent="1" vertex="1">
          <mxGeometry x="220" y="640" width="110" height="30" as="geometry" />
        </mxCell>
        <mxCell id="IpGAfAJii4wdeeZVUUcH-24" value="&lt;div&gt;Формирует прайс лист для клиента из его пожеланий&lt;/div&gt;" style="text;html=1;align=center;verticalAlign=middle;whiteSpace=wrap;rounded=0;" parent="1" vertex="1">
          <mxGeometry x="250" y="700" width="230" height="30" as="geometry" />
        </mxCell>
      </root>
    </mxGraphModel>
  </diagram>
</mxfile>
